<svg width="32" height="32" viewBox="0 0 60 60" fill="none" xmlns="http://www.w3.org/2000/svg">
  <rect x="0.5" y="0.5" width="59" height="59" stroke="white"></rect>
  <path
    d="M19.216 19.464C19.216 20.36 19.488 21.304 20.032 22.296C20.608 23.288 20.896 24.328 20.896 25.416C20.896 26.504 20.768 27.432 20.512 28.2C20.256 28.968 19.824 29.624 19.216 30.168C19.792 30.744 20.208 31.448 20.464 32.28C20.752 33.08 20.896 33.976 20.896 34.968C20.896 35.992 20.608 37.032 20.032 38.088C19.488 39.112 19.216 40.056 19.216 40.92C19.216 41.176 19.36 41.464 19.648 41.784C19.968 42.072 20.432 42.216 21.04 42.216H23.056L23.68 47.016H20.896C18.528 47.016 16.8 46.456 15.712 45.336C14.624 44.216 14.08 42.744 14.08 40.92C14.08 40.44 14.16 39.816 14.32 39.048C14.512 38.28 14.752 37.544 15.04 36.84C15.168 36.392 15.296 35.96 15.424 35.544C15.584 35.096 15.664 34.712 15.664 34.392C15.664 33.752 15.456 33.24 15.04 32.856C14.624 32.472 14.16 32.28 13.648 32.28H11.488V28.152H13.648C14.16 28.152 14.624 27.96 15.04 27.576C15.456 27.192 15.664 26.68 15.664 26.04C15.664 25.72 15.584 25.32 15.424 24.84C15.296 24.36 15.136 23.848 14.944 23.304C14.72 22.664 14.512 21.992 14.32 21.288C14.16 20.584 14.08 19.96 14.08 19.416C14.08 17.592 14.624 16.136 15.712 15.048C16.8 13.928 18.528 13.368 20.896 13.368H23.68L23.056 18.168H21.04C20.432 18.168 19.968 18.328 19.648 18.648C19.36 18.936 19.216 19.208 19.216 19.464ZM39.8736 40.92C39.8736 40.024 39.6016 39.08 39.0576 38.088C38.5136 37.096 38.2416 36.056 38.2416 34.968C38.2416 33.912 38.3696 32.984 38.6256 32.184C38.8816 31.384 39.3136 30.728 39.9216 30.216C39.3456 29.64 38.9136 28.952 38.6256 28.152C38.3696 27.32 38.2416 26.408 38.2416 25.416C38.2416 24.392 38.5136 23.368 39.0576 22.344C39.6016 21.288 39.8736 20.328 39.8736 19.464C39.8736 19.208 39.7296 18.936 39.4416 18.648C39.1536 18.328 38.7056 18.168 38.0976 18.168H36.0816L35.5536 13.368H38.2416C40.5776 13.368 42.3056 13.928 43.4256 15.048C44.5776 16.136 45.1536 17.592 45.1536 19.416C45.1536 19.928 45.0416 20.568 44.8176 21.336C44.6256 22.104 44.4016 22.84 44.1456 23.544C44.0176 23.992 43.8736 24.44 43.7136 24.888C43.5856 25.336 43.5216 25.72 43.5216 26.04C43.5216 26.648 43.7136 27.16 44.0976 27.576C44.5136 27.96 44.9776 28.152 45.4896 28.152H47.6496V32.232H45.4896C44.9776 32.232 44.5136 32.424 44.0976 32.808C43.7136 33.192 43.5216 33.72 43.5216 34.392C43.5216 34.808 43.6016 35.24 43.7616 35.688C43.9536 36.104 44.1136 36.568 44.2416 37.08C44.4336 37.688 44.6256 38.36 44.8176 39.096C45.0416 39.8 45.1536 40.408 45.1536 40.92C45.1536 42.744 44.5776 44.216 43.4256 45.336C42.3056 46.456 40.5776 47.016 38.2416 47.016H35.5536L36.0816 42.216H38.0976C38.7056 42.216 39.1536 42.072 39.4416 41.784C39.7296 41.464 39.8736 41.176 39.8736 40.92Z"
    fill="white"></path>
</svg>
